<svg version="1.1" id="Layer_1" xmlns="http://www.w3.org/2000/svg" xmlns:xlink="http://www.w3.org/1999/xlink" x="0px" y="0px"
	 width="100%" viewBox="0 0 1024 1024" enable-background="new 0 0 1024 1024" xml:space="preserve">
<path fill="#000000" opacity="1.000000" stroke="none" 
	d="
M662.430176,732.884399 
	C659.025818,734.090942 655.904358,734.380554 652.709778,734.373169 
	C639.211121,734.342041 625.708862,734.195068 612.214966,734.456421 
	C604.819031,734.599670 598.571350,732.230469 592.790833,727.860107 
	C580.962891,718.917603 568.950500,710.215942 557.233337,701.132263 
	C554.183655,698.768066 552.184082,698.956909 549.643494,701.472534 
	C544.536926,706.528870 538.931396,710.992004 532.721802,714.633850 
	C530.720703,715.807312 530.186584,717.544617 530.027344,719.631042 
	C528.938110,733.906860 527.655151,748.173462 528.799500,762.516602 
	C529.064209,765.835266 529.123047,769.171387 529.231689,772.501038 
	C529.300415,774.603882 529.066833,776.848389 526.479065,777.060852 
	C523.555298,777.300720 522.887573,774.844910 522.887512,772.648621 
	C522.887146,762.993347 521.276733,753.367615 522.333069,743.698669 
	C523.147644,736.242554 522.074402,728.694031 523.499146,721.262634 
	C523.918579,719.074768 522.641479,718.045288 520.591187,718.432617 
	C513.768066,719.721436 507.029236,718.921143 499.631134,717.376221 
	C499.974152,723.742859 500.096008,729.640259 500.647888,735.497070 
	C501.827026,748.011597 499.988831,760.457947 500.028625,772.943298 
	C500.035156,774.998962 499.389557,777.151733 496.714966,777.075928 
	C494.017090,776.999512 493.720306,774.877136 493.715179,772.761169 
	C493.693420,763.765198 494.989471,754.828735 494.727600,745.806763 
	C494.461639,736.644653 493.835175,727.528687 492.843506,718.421631 
	C492.603729,716.219604 491.896942,714.742676 489.923004,713.636292 
	C474.871246,705.200378 462.814636,693.192688 451.449646,680.525391 
	C407.806488,631.881287 356.160736,593.988342 297.580444,565.334106 
	C295.979553,564.550964 294.446869,563.403198 292.041107,563.614075 
	C289.629395,570.203552 288.618469,577.267761 287.490021,584.238525 
	C281.308807,622.422974 277.630402,660.819153 278.302917,699.558533 
	C278.719452,723.550720 280.689117,747.399353 284.718353,771.064087 
	C285.139832,773.539673 286.159790,776.480286 282.520721,777.043945 
	C279.351044,777.534912 279.068054,774.689758 278.600372,772.360413 
	C275.382996,756.336426 274.134857,740.069580 272.885834,723.825439 
	C271.171967,701.535950 271.482117,679.193604 272.957794,656.915039 
	C275.223816,622.704651 279.217499,588.726624 286.900635,555.206909 
	C289.934509,541.970642 290.032166,528.184265 293.213379,514.852661 
	C300.162567,485.730621 311.315155,458.101868 322.222015,430.362854 
	C328.745667,413.771454 334.866333,397.032043 337.665222,379.321716 
	C340.702362,360.104218 338.619293,341.198761 334.179169,322.384766 
	C328.906769,300.044128 323.077789,277.820343 319.313416,255.144028 
	C319.204529,254.488129 318.979004,253.849106 318.900116,253.191147 
	C318.646240,251.073318 318.784149,248.913788 321.301178,248.422134 
	C323.814911,247.931137 324.834381,249.787704 325.242523,251.935654 
	C326.142395,256.671265 326.831207,261.452057 327.877930,266.153900 
	C332.574890,287.252625 337.350464,308.333984 342.128815,329.414551 
	C348.914185,359.349213 344.742157,388.246277 334.181122,416.625122 
	C325.005676,441.280579 314.363342,465.390930 306.527802,490.541901 
	C301.128479,507.873016 296.198792,525.315918 294.937775,543.574707 
	C294.752075,546.263672 295.262268,547.852356 297.741821,549.189514 
	C342.036621,573.076782 387.753937,593.307007 437.186584,604.183777 
	C467.635223,610.883545 498.460114,613.280579 529.504272,611.457764 
	C542.619263,610.687683 539.497498,612.756897 542.578003,600.542236 
	C543.986450,594.957703 543.292664,589.736145 541.444336,584.429565 
	C537.437012,572.924377 534.568970,561.149658 533.196411,549.010132 
	C531.126770,530.705322 536.555542,515.972168 552.597534,505.683105 
	C564.404480,498.110260 577.278564,493.364960 590.705566,489.818878 
	C591.825745,489.523010 592.951965,489.246490 594.059326,488.908203 
	C594.356934,488.817261 594.595154,488.531677 595.384460,487.948273 
	C584.598022,476.499390 579.765503,463.067963 583.196594,447.396240 
	C585.323975,437.679352 589.998718,429.341980 597.925903,423.102966 
	C614.060547,410.404388 636.263000,410.625183 651.397644,423.563324 
	C669.641479,439.159454 671.166992,458.891022 656.046082,486.196075 
	C660.285767,488.249207 664.970093,488.492401 669.386353,489.602417 
	C683.045532,493.035767 696.105591,497.801300 707.986389,505.542175 
	C721.895874,514.604797 728.835876,527.106140 727.414673,543.908569 
	C727.309021,545.157471 726.893494,546.558472 728.195312,547.928040 
	C731.620178,546.892334 730.523865,544.229248 730.223755,541.951050 
	C727.074341,518.043884 720.197510,495.113434 712.020325,472.521362 
	C704.368958,451.382172 695.483093,430.719513 688.144470,409.449738 
	C678.202271,380.634064 676.729248,351.680634 684.015808,322.028534 
	C689.529419,299.591309 695.103088,277.141968 698.940674,254.323578 
	C699.050476,253.670944 699.357361,253.052292 699.476624,252.400284 
	C699.903564,250.065903 700.715332,247.933762 703.625488,248.734894 
	C706.342407,249.482803 706.251282,251.767593 705.793579,254.054825 
	C704.455200,260.742950 703.301697,267.471924 701.803040,274.123474 
	C697.414673,293.599823 692.955750,313.060791 688.410767,332.501221 
	C681.735352,361.054443 687.145569,388.329865 696.903992,415.183655 
	C705.888428,439.907379 716.325134,464.086182 724.430176,489.142975 
	C730.750305,508.681610 734.931152,528.612366 737.506104,548.997192 
	C739.149170,562.005188 742.652893,574.766907 744.724915,587.734558 
	C748.479370,611.231018 751.108032,634.855347 752.425171,658.644958 
	C753.597046,679.809387 753.566040,700.932251 752.240967,722.063965 
	C751.189148,738.838501 749.560303,755.557495 746.562256,772.114441 
	C746.155457,774.361267 746.039307,777.388123 742.777344,776.901611 
	C739.399963,776.397949 739.844971,773.671387 740.295837,770.991577 
	C746.146545,736.213745 747.967834,701.132263 746.474243,665.977600 
	C745.075256,633.047852 741.383301,600.295593 734.744080,567.944702 
	C734.412354,566.328308 734.236450,564.661438 733.063538,563.122986 
	C727.731689,564.374390 725.012634,567.300293 722.701233,572.816833 
	C715.695801,589.536255 720.175842,605.458740 723.812744,621.669006 
	C727.015137,635.942688 730.252686,650.214050 732.596191,664.666443 
	C734.149902,674.248596 731.249390,682.121826 723.498596,688.000488 
	C705.314453,701.792786 687.081421,715.520874 668.822693,729.214355 
	C666.976135,730.599182 664.819824,731.571106 662.430176,732.884399 
M470.455688,691.036682 
	C474.598663,695.155029 479.161835,698.762756 483.765839,702.352539 
	C493.353943,709.828735 503.967804,713.558044 516.249146,712.754395 
	C529.852112,711.864197 538.620789,703.387268 547.923523,694.385803 
	C545.079712,692.172302 543.041992,690.477783 540.895630,688.934265 
	C531.673584,682.302124 528.322510,673.457947 530.508667,662.334290 
	C533.168518,648.799988 535.593201,635.219177 538.304504,621.695496 
	C538.993103,618.260681 538.005798,616.988464 534.603638,617.306702 
	C531.289124,617.616699 527.970947,617.967957 524.646851,618.081665 
	C486.091217,619.401123 448.241730,614.736816 411.202728,604.029358 
	C371.048553,592.421326 333.087097,575.526733 296.466095,555.507874 
	C295.714081,555.096802 294.880035,554.076111 293.845551,555.281006 
	C294.234650,557.340210 296.194122,557.431519 297.576080,558.121582 
	C306.811218,562.733215 316.019012,567.380066 325.009125,572.473450 
	C361.377716,593.078247 395.169098,617.176636 425.883820,645.608826 
	C441.308777,659.887451 454.659241,676.154785 470.455688,691.036682 
M674.432434,497.183777 
	C648.609863,489.899353 622.558228,489.373260 596.379272,494.843109 
	C579.939514,498.278046 564.263000,503.692749 550.961792,514.444153 
	C543.443237,520.521484 539.444580,528.265259 539.132507,538.161316 
	C538.645813,553.597961 542.247925,568.195129 547.186890,582.584595 
	C549.225403,588.523926 549.932983,594.367676 548.629089,600.690857 
	C544.431763,621.045227 540.601440,641.475586 536.680542,661.886475 
	C534.897583,671.167725 537.092529,678.672913 545.242920,684.587036 
	C562.765137,697.301697 579.916321,710.527588 597.220764,723.542419 
	C601.608459,726.842529 606.488647,728.705383 612.038635,728.695557 
	C625.032776,728.672668 638.026978,728.708252 651.020935,728.656982 
	C656.478027,728.635498 661.489258,727.262451 665.944214,723.856140 
	C683.141785,710.706909 700.244995,697.423950 717.723938,684.657227 
	C726.038513,678.584106 728.206604,671.105164 726.097717,661.547241 
	C722.299133,644.331604 718.797546,627.049866 714.921997,609.851990 
	C712.600586,599.550476 710.757874,589.559753 714.893066,579.072937 
	C718.865479,568.999023 720.392700,558.198059 721.491821,547.406494 
	C723.214661,530.491150 717.293762,517.450928 702.269348,508.857605 
	C693.695312,503.953613 684.719299,500.060486 674.432434,497.183777 
M647.684387,453.164093 
	C648.875793,459.029602 647.355896,464.347382 644.423340,469.386322 
	C643.169983,471.540009 642.076172,474.043701 645.281250,475.128265 
	C648.303040,476.150787 649.494568,478.522888 651.001221,481.585114 
	C659.232178,471.676636 662.260986,461.227722 659.795532,449.135132 
	C656.770142,434.296021 643.907776,421.869293 629.683716,420.344543 
	C612.483398,418.500763 597.935059,426.698456 591.260498,441.995117 
	C584.928345,456.507019 588.759888,473.740723 600.507568,483.893372 
	C603.347351,486.347626 606.392212,488.093994 609.869141,485.636414 
	C612.006897,484.125366 611.020142,476.112030 608.784363,474.031921 
	C600.843994,466.644440 598.534363,455.822693 602.848755,446.220917 
	C606.862305,437.288666 616.766357,431.767487 626.959961,432.779755 
	C637.196167,433.796234 645.167969,441.395996 647.684387,453.164093 
M611.111633,444.654846 
	C606.538635,450.307465 605.377991,456.557617 608.311890,463.254272 
	C610.021973,467.157532 612.561951,470.434784 617.454651,471.535065 
	C617.360901,468.644928 615.340332,467.975311 614.176270,466.703003 
	C609.508423,461.601074 608.642700,456.187561 611.693787,450.227081 
	C614.454773,444.833099 619.971802,441.975159 626.185669,442.719757 
	C632.105042,443.429108 636.183777,447.527802 637.620239,454.142548 
	C638.183716,456.737579 638.509827,459.478912 641.002563,461.507843 
	C642.925598,452.553558 640.098145,445.224457 633.446838,441.242676 
	C625.980408,436.772949 618.803650,437.721191 611.111633,444.654846 
M635.669861,465.044739 
	C631.432068,455.957855 631.734802,456.422119 620.743286,462.405121 
	C623.170105,466.170532 623.218689,470.769501 624.876587,474.951721 
	C627.555542,474.951721 630.027893,474.861816 632.491150,474.973267 
	C635.987244,475.131500 637.374451,473.531555 636.799744,470.148407 
	C636.552185,468.691528 636.217712,467.249451 635.669861,465.044739 
M639.137329,485.690002 
	C641.069885,485.345123 644.215149,486.632538 644.315796,483.506653 
	C644.421448,480.222229 641.209412,481.282715 639.319763,481.243622 
	C632.874756,481.110199 626.424744,481.195831 619.976929,481.242676 
	C618.315369,481.254730 616.388062,481.215210 616.516846,483.664337 
	C616.627747,485.773956 618.385742,485.658783 619.862915,485.666229 
	C625.980225,485.697174 632.097656,485.686310 639.137329,485.690002 
z"/>
<path fill="#000000" opacity="1.000000" stroke="none" 
	d="
M495.989563,457.161621 
	C491.741852,455.312134 493.099152,453.107849 495.314148,451.058929 
	C499.729309,446.974884 508.070862,446.283203 513.523560,449.588531 
	C515.739258,450.931641 518.444031,452.295319 517.703125,455.586487 
	C517.251465,457.592834 515.133789,457.575470 510.138123,455.532867 
	C509.900177,458.909790 510.405243,462.202026 509.552338,465.329803 
	C509.057953,467.142853 508.637421,469.122375 506.194672,468.838287 
	C504.059814,468.589996 503.147186,466.878143 502.991577,464.936859 
	C502.730011,461.672852 503.497528,458.327393 502.378876,455.147614 
	C499.696533,454.231628 498.508484,457.070557 495.989563,457.161621 
z"/>
<path fill="#000000" opacity="1.000000" stroke="none" 
	d="
M574.949951,513.860596 
	C615.291321,493.148987 654.571655,495.244385 692.811829,518.133545 
	C714.450378,531.085571 718.502075,540.924622 713.809143,567.593018 
	C713.665161,568.411438 713.578552,569.278687 713.237366,570.018005 
	C705.631714,586.499146 708.885742,602.960876 712.830872,619.606140 
	C715.704346,631.729919 717.800659,644.049561 719.907837,656.339417 
	C721.461853,665.402832 719.618225,673.595825 712.104065,679.776489 
	C696.669861,692.471802 681.289673,705.233459 665.779724,717.835449 
	C661.940613,720.954834 657.295898,722.350342 652.284668,722.349060 
	C638.455017,722.345581 624.624756,722.288879 610.796082,722.407837 
	C604.530212,722.461731 599.613647,719.580139 595.006592,715.856262 
	C581.013550,704.545776 567.219971,692.979675 553.012390,681.946106 
	C541.922302,673.333496 541.636536,662.238159 543.902344,649.963623 
	C547.221497,631.982056 550.141296,613.927124 553.360657,595.926514 
	C554.040955,592.122681 553.122498,588.668640 552.065063,585.156494 
	C549.332214,576.079651 546.456543,567.079834 545.197083,557.589233 
	C543.449951,544.424133 547.071228,533.634644 557.477905,525.184631 
	C562.810242,520.854858 568.558838,517.215271 574.949951,513.860596 
M610.966187,507.438934 
	C592.841248,511.406769 576.058899,518.353577 561.371033,529.896912 
	C554.387817,535.385132 550.839355,542.419434 551.019531,551.510498 
	C551.234436,562.351562 554.107422,572.548340 557.734985,582.578796 
	C559.661621,587.906250 560.090820,593.148560 559.119629,598.705078 
	C555.686584,618.346069 552.623352,638.054260 548.972656,657.653625 
	C547.424561,665.965027 550.382812,671.919250 556.514832,676.886902 
	C570.875916,688.520874 585.260010,700.126465 599.643372,711.732910 
	C603.954529,715.211731 608.839233,716.811646 614.437744,716.731934 
	C625.428284,716.575439 636.422729,716.633789 647.415161,716.679810 
	C654.157532,716.708069 660.060913,714.829163 665.352051,710.414673 
	C678.521057,699.427246 691.707947,688.444580 705.253784,677.931824 
	C713.131714,671.817749 715.264038,664.223083 713.518799,654.992126 
	C711.510437,644.369141 709.788391,633.669495 707.219177,623.180115 
	C702.703735,604.744446 698.975159,586.447815 707.481689,568.131287 
	C707.549744,567.984741 707.548035,567.806458 707.583069,567.643860 
	C712.851624,543.162292 708.696106,533.500854 686.719543,521.361877 
	C663.362610,508.460449 638.648804,502.041595 610.966187,507.438934 
z"/>
<path fill="#000000" opacity="1.000000" stroke="none" 
	d="
M581.487244,692.526917 
	C574.839417,687.194885 568.675049,681.802185 562.056946,677.040100 
	C554.084229,671.303162 551.296814,663.749939 552.845032,654.386780 
	C555.095520,640.776489 557.528625,627.196350 559.857544,613.598877 
	C560.485474,609.932495 562.312683,607.634155 565.757874,605.691956 
	C582.580566,596.208557 599.701599,596.271729 617.246155,603.110413 
	C620.349670,604.320129 623.697083,605.158997 626.473877,606.899841 
	C632.703735,610.805664 638.487366,609.827820 644.176636,606.106995 
	C659.330688,596.196106 674.179932,596.762573 690.466858,604.565369 
	C698.655884,608.488647 702.351135,612.817566 703.499878,621.364258 
	C705.003662,632.551025 707.640076,643.584595 709.752136,654.691101 
	C711.423706,663.480713 708.994202,670.682190 701.825989,676.375305 
	C689.433289,686.217651 677.115662,696.160583 664.964844,706.298889 
	C659.565247,710.804199 653.615784,712.976807 646.664001,712.944702 
	C636.331299,712.896912 625.997986,712.974121 615.664978,713.025513 
	C609.602295,713.055603 604.265198,711.263916 599.579651,707.292847 
	C593.732971,702.337646 587.714172,697.585449 581.487244,692.526917 
M644.599182,613.906738 
	C660.572754,621.325195 685.360718,620.277771 692.116272,612.404846 
	C688.071472,610.644165 684.065796,609.079163 680.217407,607.193115 
	C666.695862,600.566345 655.313232,605.887878 644.599182,613.906738 
M577.951111,666.468018 
	C571.372925,657.819031 568.511108,648.236145 570.741882,637.413635 
	C571.580505,633.345703 572.649902,629.323730 573.421692,625.244324 
	C573.821777,623.129700 574.647644,620.566345 570.809265,619.656555 
	C568.997925,625.748413 568.435181,631.855469 567.115967,637.794495 
	C564.826843,648.100281 567.525818,657.241699 572.881226,665.852966 
	C574.902405,669.102966 577.379333,672.062744 580.363647,674.522278 
	C581.296448,675.291077 582.397827,675.881104 583.463257,674.743103 
	C584.626160,673.500977 583.589783,672.654358 582.797974,671.797180 
	C581.329346,670.207275 579.862610,668.615662 577.951111,666.468018 
M600.089844,687.424072 
	C610.172913,692.169983 614.876892,693.102844 617.572083,690.890991 
	C616.096619,689.695068 594.798523,681.575623 593.444336,681.826599 
	C594.091614,685.187805 597.267517,685.584717 600.089844,687.424072 
M596.796509,631.956726 
	C595.196899,631.581360 593.817688,629.500977 591.640442,631.521362 
	C593.070618,635.493530 597.025635,635.092041 600.009827,636.210327 
	C600.304871,636.320862 601.229797,635.568970 601.353760,635.086670 
	C601.477295,634.605591 601.118591,633.686768 600.693542,633.441772 
	C599.709167,632.874390 598.557007,632.598145 596.796509,631.956726 
M663.950745,644.586182 
	C661.287537,645.279114 658.139038,644.113464 655.379517,646.795044 
	C658.395996,648.521484 661.160583,648.191223 663.844360,647.657227 
	C665.508606,647.326111 666.025269,646.225647 663.950745,644.586182 
z"/>
<path fill="#000000" opacity="1.000000" stroke="none" 
	d="
M571.323425,540.298096 
	C579.101990,533.618286 587.606567,528.773926 596.534241,524.617493 
	C598.513245,523.696106 600.858337,522.447998 602.172302,525.132935 
	C603.476746,527.798157 601.025818,529.024841 599.139099,529.988708 
	C591.138306,534.076111 583.138916,538.113037 576.196899,543.969727 
	C568.664795,550.324280 564.292603,557.759155 566.919128,567.998291 
	C567.501770,570.269836 567.384644,572.598328 564.509277,573.059143 
	C561.982239,573.464233 561.165222,571.435303 560.668518,569.368652 
	C557.810974,557.478638 562.401062,548.274292 571.323425,540.298096 
z"/>
<path fill="#000000" opacity="1.000000" stroke="none" 
	d="
M694.476807,584.655762 
	C694.212830,588.578918 693.945435,592.074829 694.873535,595.515259 
	C695.454102,597.667297 694.631775,599.195374 692.594116,599.822266 
	C690.135193,600.578857 689.375061,598.683105 688.840820,596.887085 
	C687.275146,591.623474 687.586121,586.356567 689.039673,581.118774 
	C689.707031,578.713928 690.479797,576.334717 691.053650,573.908142 
	C692.816101,566.456177 692.559448,559.376160 687.212402,553.198181 
	C685.827209,551.597778 683.949402,549.578796 686.374634,547.634827 
	C688.964844,545.558655 690.715271,547.864624 692.103577,549.690674 
	C697.289368,556.511475 699.682800,564.073364 697.593994,572.645752 
	C696.649292,576.522766 695.565369,580.365845 694.476807,584.655762 
z"/>
<path fill="#000000" opacity="1.000000" stroke="none" 
	d="
M579.672974,557.803711 
	C577.515686,561.317383 576.943420,564.934570 576.384094,568.539185 
	C576.126099,570.201477 575.561646,571.476929 573.656738,571.408997 
	C571.947083,571.348022 571.032898,570.233887 570.494629,568.690857 
	C569.667542,566.319519 570.408142,564.051270 571.073120,561.866089 
	C574.619751,550.211609 583.929626,543.730225 593.357178,537.413208 
	C594.970459,536.332275 596.681519,536.762634 597.646240,538.458496 
	C598.999512,540.837219 597.305237,542.247986 595.538635,543.252808 
	C589.240601,546.835083 583.768372,551.284973 579.672974,557.803711 
z"/>
<path fill="#000000" opacity="1.000000" stroke="none" 
	d="
M565.737305,590.018066 
	C565.583618,588.624023 565.559509,587.621704 565.311523,586.678162 
	C564.666016,584.222351 564.558777,581.747681 567.577637,581.178223 
	C570.316101,580.661743 571.104187,582.916504 571.455994,585.205688 
	C571.680298,586.665222 572.090027,588.102722 572.226196,589.567810 
	C572.430542,591.766113 572.391113,594.272339 569.752075,594.782898 
	C566.623474,595.388184 566.047607,592.865845 565.737305,590.018066 
z"/>
</svg>