<svg version="1.1" id="Layer_1" xmlns="http://www.w3.org/2000/svg" xmlns:xlink="http://www.w3.org/1999/xlink" x="0px" y="0px"
	 width="100%" viewBox="0 0 1024 559" enable-background="new 0 0 1024 559" xml:space="preserve">
<path fill="none" opacity="1.000000" stroke="#000000" stroke-linecap="round" stroke-linejoin="round" stroke-width="3.000000"
	d="
M379.500000,134.500000 
	C399.126038,141.776886 419.430756,146.337616 439.982697,150.094666 
	C450.948181,152.099228 461.987152,153.424194 472.983276,155.109177 
	C496.578918,158.724869 520.304932,158.268188 543.996704,157.824432 
	C555.694031,157.605331 567.374939,155.966492 579.034241,154.230057 
	C592.864563,152.170334 606.514954,149.537521 619.984985,145.943665 
	C629.208313,143.482849 638.346191,140.650543 647.000000,136.500000 
"/>
<path fill="none" opacity="1.000000" stroke="#000000" stroke-linecap="round" stroke-linejoin="round" stroke-width="4.000000"
	d="
M397.500000,356.000000 
	C394.084106,351.998138 388.849335,352.066895 384.444366,350.676208 
	C373.179810,347.119965 362.036377,343.394196 351.498230,338.003479 
	C344.138184,334.238495 339.942261,323.803589 341.384247,315.479950 
	C343.544312,303.011475 346.611359,290.730682 347.678162,278.014954 
	C348.973511,262.574860 351.162109,247.213501 354.228851,231.945541 
	C355.895020,223.650421 356.700928,215.023270 357.703979,206.524078 
	C359.797150,188.787766 361.824066,170.809509 372.583282,155.558746 
	C373.603302,154.112885 373.730255,152.760345 373.425323,151.518341 
	C372.101288,146.125427 373.650177,141.292587 376.619720,137.084473 
	C378.380585,134.589157 378.645599,132.181351 378.471649,129.501846 
	C378.277802,126.516182 378.778015,123.683090 380.017853,121.008278 
	C382.099548,116.517197 383.904083,115.462837 388.478363,117.061867 
	C398.135345,120.437645 407.993958,123.043892 418.012817,124.931908 
	C428.002258,126.814369 437.970123,128.845413 447.959961,130.714111 
	C458.275665,132.643738 468.730652,133.375412 479.030090,135.342529 
	C483.382751,136.173859 488.007904,136.116714 492.505737,136.412613 
	C512.492493,137.727463 532.529602,137.893448 552.491455,136.386658 
	C571.366272,134.961929 590.033386,131.630600 608.474976,127.391212 
	C618.116821,125.174744 627.585205,122.084625 636.967163,118.903137 
	C642.355957,117.075775 643.195190,116.943649 645.467957,122.014366 
	C646.173706,123.588821 647.083191,125.399742 646.902222,126.988861 
	C645.962463,135.242004 652.552002,141.767075 652.265930,149.491333 
	C651.994873,156.805298 656.501648,161.632294 659.040344,167.482498 
	C662.804138,176.155807 665.166138,185.134171 666.571106,194.489319 
	C669.175598,211.831299 670.548279,229.321213 674.193787,246.564743 
	C676.108093,255.619278 676.726379,265.143646 677.738464,274.474121 
	C678.970520,285.832672 679.344604,297.316772 682.229248,308.569397 
	C683.631653,314.039948 684.795044,319.785400 685.481018,325.502289 
	C686.292664,332.267120 684.078125,337.919312 679.008728,342.509644 
	C671.098450,349.672485 661.342529,353.262024 651.478149,356.432007 
	C638.539185,360.590118 625.283020,363.579041 612.057007,366.738708 
	C599.179810,369.815094 586.246460,372.797943 573.439575,376.277527 
	C562.079163,379.364105 550.504883,381.860474 538.982727,384.422363 
	C534.588806,385.399353 530.002502,385.523865 525.499084,385.990875 
	C522.864563,386.264099 520.998535,384.820251 520.598816,382.483093 
	C520.040161,379.216797 519.818420,375.806763 520.070374,372.505371 
	C520.645630,364.969604 520.152161,357.811768 517.862854,350.388092 
	C516.527222,346.056854 516.693970,341.260834 513.500000,337.500000 
"/>
<path fill="none" opacity="1.000000" stroke="#000000" stroke-linecap="round" stroke-linejoin="round" stroke-width="3.000000"
	d="
M448.000000,426.500000 
	C433.645386,432.465210 422.076019,426.110840 411.026886,417.963531 
	C405.302063,413.742157 399.071747,411.130798 392.000031,410.499512 
	C383.340485,409.726440 379.783386,412.647552 379.025940,421.502228 
	C378.242645,430.658905 377.926605,439.863647 376.863739,448.984131 
	C376.474304,452.325836 376.040680,455.634613 375.993195,458.999908 
	C375.896759,465.828979 379.783234,470.716553 387.014771,471.910461 
	C393.611694,472.999542 400.320404,473.561157 407.003357,473.940918 
	C414.924683,474.391022 422.703278,475.599701 430.516113,476.903381 
	C439.616608,478.421906 446.454803,473.879761 447.198151,463.514221 
	C447.903381,453.679901 447.579834,443.818207 448.839050,433.979401 
	C450.213898,423.236694 450.333344,412.333344 451.000000,401.500000 
"/>
<path fill="none" opacity="1.000000" stroke="#000000" stroke-linecap="round" stroke-linejoin="round" stroke-width="4.000000"
	d="
M675.000000,347.500000 
	C675.911987,352.205200 674.776184,356.915619 674.290527,361.477692 
	C672.881958,374.707336 670.801270,387.888123 668.419495,400.985382 
	C665.770996,415.549286 662.856567,430.085510 659.405518,444.477356 
	C655.500305,460.763397 651.555481,477.026215 648.462830,493.493011 
	C646.903381,501.796082 644.975098,510.029358 644.500000,518.500000 
"/>
<path fill="none" opacity="1.000000" stroke="#000000" stroke-linecap="round" stroke-linejoin="round" stroke-width="4.000000"
	d="
M525.000000,387.000000 
	C525.485840,398.734741 526.878906,410.364075 528.293823,422.025024 
	C529.549866,432.375885 531.404541,442.632324 532.563721,452.992859 
	C533.593201,462.193512 535.367737,471.310455 536.415588,480.509613 
	C536.943237,485.141876 537.179504,489.887817 537.266541,494.504395 
	C537.417847,502.531158 539.076477,510.462097 538.500000,518.500000 
"/>
<path fill="none" opacity="1.000000" stroke="#000000" stroke-linecap="round" stroke-linejoin="round" stroke-width="4.000000"
	d="
M459.000000,374.500000 
	C458.674500,382.166992 458.095581,389.819153 457.812256,397.493073 
	C457.591461,403.472809 457.189606,409.628693 456.111084,415.427673 
	C455.399231,419.255280 456.268066,422.823547 455.653839,426.525513 
	C454.729858,432.094177 454.625519,437.830505 454.547913,443.500641 
	C454.426849,452.346344 453.643616,461.164368 453.259399,469.989532 
	C452.890991,478.451813 447.278564,484.212433 438.490356,483.651062 
	C429.411591,483.071106 420.495850,481.198120 411.488922,480.700958 
	C403.443481,480.256897 395.562714,478.431366 387.499969,478.495331 
	C380.226410,478.553009 373.953064,476.408600 370.572479,469.464722 
	C368.522583,465.254181 369.829468,460.499573 369.472900,456.002136 
	C368.612244,445.146576 372.517059,434.824219 372.731262,424.004578 
	C372.955597,412.673615 375.234863,401.411072 375.583954,390.002563 
	C375.793488,383.155243 376.497314,376.278320 377.604340,369.517090 
	C378.520294,363.922913 381.858582,360.764801 387.943634,359.270447 
	C396.407684,357.191803 404.802155,355.075775 413.492645,355.618073 
	C419.863586,356.015625 426.387390,356.793304 432.442413,358.684418 
	C439.522125,360.895569 446.169525,364.493500 452.994537,367.512329 
	C453.536041,367.751862 454.176910,368.053406 454.473663,368.516846 
	C459.537750,376.426117 468.656311,375.547272 476.000000,378.500000 
"/>
<path fill="none" opacity="1.000000" stroke="#000000" stroke-linecap="round" stroke-linejoin="round" stroke-width="3.000000"
	d="
M509.500000,196.500000 
	C508.624695,212.321487 507.748352,228.134460 507.947662,244.000656 
	C508.159851,260.891693 509.211426,277.705750 510.926514,294.507507 
	C511.840851,303.465210 512.000000,312.500000 512.500000,321.500000 
"/>
<path fill="none" opacity="1.000000" stroke="#000000" stroke-linecap="round" stroke-linejoin="round" stroke-width="3.000000"
	d="
M518.000000,376.000000 
	C515.186401,380.074738 514.075256,384.946442 511.137787,389.097504 
	C503.513702,399.871429 490.730560,396.870422 483.950134,389.546173 
	C475.776337,380.716705 473.801056,369.467712 471.014221,358.496399 
	C468.310791,347.853577 467.070190,336.804352 461.537384,326.978943 
	C457.518738,319.842529 451.804596,316.077789 443.503052,317.026611 
	C436.145874,317.867493 432.070343,322.960510 429.039246,329.019623 
	C426.464691,334.166168 424.681610,339.596466 425.517883,345.497467 
	C426.051880,349.265228 424.119568,352.768433 424.500000,356.500000 
"/>
<path fill="none" opacity="1.000000" stroke="#000000" stroke-linecap="round" stroke-linejoin="round" stroke-width="4.000000"
	d="
M496.000000,430.000000 
	C497.515991,436.330139 495.080811,442.369141 494.335754,448.479980 
	C493.155731,458.157928 491.507080,467.777374 490.321075,477.478119 
	C488.875488,489.302216 489.282837,501.230621 487.537109,513.005493 
	C487.271149,514.799377 487.500000,516.666687 487.500000,518.500000 
"/>
<path fill="none" opacity="1.000000" stroke="#000000" stroke-linecap="round" stroke-linejoin="round" stroke-width="4.000000"
	d="
M626.000000,43.500000 
	C622.023621,60.174786 625.644531,76.217674 630.629578,91.958969 
	C633.359680,100.579720 636.655579,108.999985 638.000000,118.000000 
"/>
<path fill="none" opacity="1.000000" stroke="#000000" stroke-linecap="round" stroke-linejoin="round" stroke-width="4.000000"
	d="
M400.000000,43.500000 
	C404.503906,62.862354 399.258972,81.010414 392.960419,98.986130 
	C390.945587,104.736343 389.515381,110.623444 388.000000,116.500000 
"/>
<path fill="none" opacity="1.000000" stroke="#000000" stroke-linecap="round" stroke-linejoin="round" stroke-width="3.000000"
	d="
M665.500000,256.500000 
	C666.742126,265.431946 665.050781,274.170929 664.142273,283.014618 
	C662.902893,295.079254 659.832825,306.600830 655.993958,317.997955 
	C655.034912,320.845093 654.000000,323.666656 653.000000,326.500000 
"/>
<path fill="none" opacity="1.000000" stroke="#000000" stroke-linecap="round" stroke-linejoin="round" stroke-width="3.000000"
	d="
M652.500000,157.000000 
	C640.195862,162.393066 627.378784,166.706894 614.421570,169.655396 
	C600.807861,172.753326 586.941589,175.195587 573.022400,177.158981 
	C551.238342,180.231735 529.392151,181.049911 507.503052,180.397690 
	C481.417114,179.620392 455.631805,175.753235 430.010376,170.944656 
	C420.279846,169.118469 410.528839,167.138321 401.039398,164.365189 
	C391.848206,161.679230 382.563324,159.012329 374.000000,154.500000 
"/>
<path fill="none" opacity="1.000000" stroke="#000000" stroke-linecap="round" stroke-linejoin="round" stroke-width="3.000000"
	d="
M417.500000,169.000000 
	C410.604828,177.115250 407.588989,187.140137 405.213867,197.051254 
	C402.125427,209.939011 400.354919,223.167297 400.000000,236.500000 
"/>
<path fill="none" opacity="1.000000" stroke="#000000" stroke-linecap="round" stroke-linejoin="round" stroke-width="3.000000"
	d="
M614.500000,170.500000 
	C623.696167,179.368835 629.655762,190.116409 632.391602,202.523895 
	C633.166748,206.038834 635.279968,209.722122 632.816772,214.356079 
	C626.483948,207.796051 623.352844,199.916031 619.500000,192.500000 
"/>
<path fill="none" opacity="1.000000" stroke="#000000" stroke-linecap="round" stroke-linejoin="round" stroke-width="3.000000"
	d="
M464.500000,318.500000 
	C463.473816,321.274811 466.250214,322.695343 467.226288,324.367950 
	C473.066132,334.375122 474.200012,345.672791 476.961121,356.509918 
	C478.683319,363.269379 479.733459,370.269196 483.074005,376.460052 
	C485.733246,381.388336 488.273315,386.511658 493.963898,389.079956 
	C497.636353,390.737396 500.236145,390.086914 502.500000,387.000000 
"/>
<path fill="none" opacity="1.000000" stroke="#000000" stroke-linecap="round" stroke-linejoin="round" stroke-width="3.000000"
	d="
M555.500000,180.000000 
	C562.835449,197.328415 563.499512,215.573029 563.106384,234.002274 
	C563.069519,235.728439 561.519287,236.819092 562.000000,238.500000 
"/>
<path fill="none" opacity="1.000000" stroke="#000000" stroke-linecap="round" stroke-linejoin="round" stroke-width="3.000000"
	d="
M608.500000,256.000000 
	C597.000000,264.666687 585.641724,273.530975 573.942566,281.919922 
	C567.723938,286.379028 562.380493,291.675659 557.000000,297.000000 
"/>
<path fill="none" opacity="1.000000" stroke="#000000" stroke-linecap="round" stroke-linejoin="round" stroke-width="3.000000"
	d="
M458.000000,313.000000 
	C455.016663,313.600037 452.913483,311.146179 450.011749,310.874542 
	C435.197693,309.487579 427.867981,317.503784 423.174835,328.077606 
	C419.427216,336.521088 416.603088,345.503204 416.500000,355.000000 
"/>
<path fill="none" opacity="1.000000" stroke="#000000" stroke-linecap="round" stroke-linejoin="round" stroke-width="3.000000"
	d="
M358.000000,292.500000 
	C361.892456,307.028351 367.583374,320.534882 378.951416,331.052490 
	C382.177551,334.037292 385.992706,336.010223 389.500000,338.500000 
"/>
<path fill="none" opacity="1.000000" stroke="#000000" stroke-linecap="round" stroke-linejoin="round" stroke-width="4.000000"
	d="
M350.500000,338.500000 
	C349.537415,345.561707 350.892273,352.627991 351.889069,359.443085 
	C352.614166,364.400879 351.546967,368.845337 351.406189,373.497162 
	C351.200378,380.298584 352.990784,386.817139 353.537201,393.496948 
	C353.593567,394.186279 354.000305,395.033997 354.525391,395.469360 
	C360.639862,400.538757 358.732758,408.118835 360.394684,414.527313 
	C362.961121,424.423645 364.824951,434.501862 367.031525,444.493042 
	C367.117249,444.881073 367.666656,445.166656 368.000000,445.500000 
"/>
<path fill="none" opacity="1.000000" stroke="#000000" stroke-linecap="round" stroke-linejoin="round" stroke-width="4.000000"
	d="
M513.000000,339.000000 
	C508.648651,344.041962 508.858124,350.536102 507.547577,356.510437 
	C505.703430,364.917267 506.655731,373.493195 506.503693,382.000061 
	C506.436401,385.763855 504.230988,386.837402 500.474121,385.577148 
	C496.614471,384.282410 492.735748,382.701782 488.500000,383.000000 
"/>
<path fill="none" opacity="1.000000" stroke="#000000" stroke-linecap="round" stroke-linejoin="round" stroke-width="4.000000"
	d="
M375.000000,476.500000 
	C374.808197,482.537628 377.125336,488.149261 377.964874,494.005035 
	C379.135590,502.171051 381.362640,510.186279 381.500000,518.500000 
"/>
<path fill="none" opacity="1.000000" stroke="#000000" stroke-linecap="round" stroke-linejoin="round" stroke-width="3.000000"
	d="
M401.500000,368.000000 
	C398.080597,367.472778 394.767487,368.421204 391.517365,369.084991 
	C385.322479,370.350098 382.007874,375.817047 382.055878,384.499695 
	C382.080383,388.932129 380.970245,393.163239 380.500000,397.500000 
"/>
<path fill="none" opacity="1.000000" stroke="#000000" stroke-linecap="round" stroke-linejoin="round" stroke-width="4.000000"
	d="
M459.000000,398.000000 
	C472.461914,399.842743 485.804321,402.761108 499.500000,402.500000 
"/>
<path fill="none" opacity="1.000000" stroke="#000000" stroke-linecap="round" stroke-linejoin="round" stroke-width="3.000000"
	d="
M529.000000,312.000000 
	C531.333313,309.333344 534.129700,306.938599 535.892456,303.936859 
	C538.595642,299.333771 542.832642,296.782593 546.921204,293.667725 
	C548.189026,299.013672 535.897522,320.924591 524.000000,335.000000 
"/>
<path fill="none" opacity="1.000000" stroke="#000000" stroke-linecap="round" stroke-linejoin="round" stroke-width="3.000000"
	d="
M427.000000,275.000000 
	C434.946503,286.865784 443.477753,298.246368 454.516754,307.479980 
	C457.829163,310.250610 459.042328,314.923462 463.015350,316.970215 
	C474.124603,322.693390 483.351471,331.352875 494.482910,337.033447 
	C494.949829,337.271759 495.166656,338.000000 495.500000,338.500000 
"/>
<path fill="none" opacity="1.000000" stroke="#000000" stroke-linecap="round" stroke-linejoin="round" stroke-width="4.000000"
	d="
M457.000000,425.000000 
	C467.765289,426.798370 478.552368,428.394714 489.500000,428.499603 
	C489.833313,428.502808 490.167755,428.482178 490.499847,428.502563 
	C499.751190,429.070770 500.017120,428.751129 500.540588,419.502289 
	C500.757660,415.666290 501.533508,411.881744 501.683777,408.007141 
	C501.737213,406.629272 502.644775,405.379120 501.513123,403.989319 
	C499.801117,401.886719 500.706879,399.351410 500.500000,397.000000 
"/>
<path fill="none" opacity="1.000000" stroke="#000000" stroke-linecap="round" stroke-linejoin="round" stroke-width="3.000000"
	d="
M420.500000,170.000000 
	C423.672821,181.791000 422.862152,193.638092 421.000000,205.500000 
"/>
<path fill="none" opacity="1.000000" stroke="#000000" stroke-linecap="round" stroke-linejoin="round" stroke-width="3.000000"
	d="
M478.000000,296.000000 
	C484.625702,307.999481 492.670868,318.966644 502.000000,329.000000 
"/>
<path fill="none" opacity="1.000000" stroke="#000000" stroke-linecap="round" stroke-linejoin="round" stroke-width="3.000000"
	d="
M400.500000,165.000000 
	C399.728180,168.899979 396.093750,170.618652 393.903717,173.424866 
	C388.285797,180.623398 384.593445,188.549774 383.000000,197.500000 
"/>
<path fill="none" opacity="1.000000" stroke="#000000" stroke-linecap="round" stroke-linejoin="round" stroke-width="3.000000"
	d="
M517.000000,352.500000 
	C514.024109,357.104828 515.426880,362.562012 514.102173,367.527252 
	C512.869324,372.148102 511.701843,376.735443 509.493958,380.996857 
	C508.981934,381.985138 508.414124,382.967957 507.000000,382.500000 
"/>
<path fill="none" opacity="1.000000" stroke="#000000" stroke-linecap="round" stroke-linejoin="round" stroke-width="3.000000"
	d="
M489.500000,180.000000 
	C486.100769,187.466843 484.464661,195.344925 483.994232,203.499664 
	C483.878693,205.502930 484.400940,207.561188 483.500000,209.500000 
"/>
<path fill="none" opacity="1.000000" stroke="#000000" stroke-linecap="round" stroke-linejoin="round" stroke-width="3.000000"
	d="
M415.500000,367.000000 
	C414.336548,369.191162 415.206421,371.677856 414.161774,374.070618 
	C412.893188,376.976532 415.212280,378.530609 418.001709,378.989655 
	C421.130829,379.504578 421.663818,377.247711 421.973358,374.996338 
	C422.291595,372.681763 421.521912,370.275360 422.500000,368.000000 
"/>
<path fill="none" opacity="1.000000" stroke="#000000" stroke-linecap="round" stroke-linejoin="round" stroke-width="3.000000"
	d="
M434.500000,372.500000 
	C441.513123,373.820007 448.716431,374.891876 451.476318,383.008057 
	C452.536377,386.125305 452.203247,389.333344 451.500000,392.500000 
"/>
<path fill="none" opacity="1.000000" stroke="#000000" stroke-linecap="round" stroke-linejoin="round" stroke-width="4.000000"
	d="
M353.000000,368.000000 
	C360.188324,372.167847 367.463440,376.149750 375.500000,378.500000 
"/>
<path fill="none" opacity="1.000000" stroke="#000000" stroke-linecap="round" stroke-linejoin="round" stroke-width="3.000000"
	d="
M566.500000,184.500000 
	C569.723511,190.823196 572.906006,197.159729 573.000000,204.500000 
"/>
<path fill="none" opacity="1.000000" stroke="#000000" stroke-linecap="round" stroke-linejoin="round" stroke-width="3.000000"
	d="
M404.500000,357.500000 
	C403.971802,359.666656 403.593750,361.833344 404.615784,364.299133 
	C413.212708,366.132477 422.118439,366.981354 430.999115,368.007721 
	C436.345154,368.625580 434.681702,363.934662 436.000000,361.500000 
"/>
<path fill="none" opacity="1.000000" stroke="#000000" stroke-linecap="round" stroke-linejoin="round" stroke-width="3.000000"
	d="
M513.500000,93.000000 
	C518.397644,97.662514 518.807739,100.840591 515.500000,108.500000 
"/>
<path fill="none" opacity="1.000000" stroke="#000000" stroke-linecap="round" stroke-linejoin="round" stroke-width="4.000000"
	d="
M373.000000,405.000000 
	C369.737274,404.094116 366.317352,403.425720 363.555603,401.423309 
	C362.015106,400.306427 360.586090,400.445892 359.000000,400.500000 
"/>
</svg>