<svg version="1.1" id="Layer_1" xmlns="http://www.w3.org/2000/svg" xmlns:xlink="http://www.w3.org/1999/xlink" x="0px" y="0px"
	 width="100%" viewBox="0 0 1024 1024" enable-background="new 0 0 1024 1024" xml:space="preserve">
<path fill="#000000" opacity="1.000000" stroke="none" 
	d="
M1025.000000,904.571533 
	C1013.767517,903.449158 1002.450500,903.355225 991.147583,903.110535 
	C974.490479,902.749817 957.830200,902.535767 941.172668,902.191589 
	C934.341248,902.050476 927.535522,901.390198 920.825928,900.121338 
	C916.743469,899.349243 912.560608,898.411011 910.680481,893.874512 
	C909.836426,891.837891 907.962646,892.198608 906.362305,892.292542 
	C893.804321,893.029602 881.448242,891.047485 869.044617,889.645447 
	C859.191284,888.531677 850.100220,891.200623 841.895813,896.341309 
	C828.147949,904.955688 813.064209,906.165222 797.587158,904.838623 
	C780.517395,903.375366 763.527161,900.930786 746.446594,899.664490 
	C736.121155,898.898987 725.901978,901.404907 715.873962,903.730957 
	C699.372925,907.558411 683.305298,907.313354 667.307556,901.228271 
	C648.560608,894.097473 629.378540,894.380676 609.767395,897.617371 
	C593.796631,900.253113 577.580627,900.505127 561.796387,895.393311 
	C559.410095,894.620422 556.547913,894.073730 555.233093,892.022583 
	C552.276550,887.410583 548.396606,887.874573 543.673584,888.013367 
	C528.856506,888.448730 514.016357,888.112854 499.185333,888.045288 
	C497.521484,888.037659 495.449890,888.057678 495.565765,885.699707 
	C495.679047,883.394409 497.833588,883.546631 499.434052,883.547852 
	C512.099304,883.557312 524.764832,883.608276 537.429688,883.713501 
	C544.820251,883.774841 551.741760,883.492249 557.609070,877.481689 
	C561.158203,873.845947 566.727844,872.790344 572.019714,872.700134 
	C577.850952,872.600647 583.687439,872.776794 589.517212,872.640930 
	C594.882202,872.515991 599.116272,871.352966 601.622620,865.285034 
	C604.853699,857.462524 612.997253,857.640564 620.056519,856.737610 
	C627.190125,855.825256 634.290283,858.152527 641.451538,857.038940 
	C663.080505,853.675354 679.610596,839.146179 684.502930,817.930176 
	C690.404663,792.336670 695.971985,766.597290 697.762329,740.334045 
	C700.862427,694.858398 689.014404,653.695557 660.537292,617.700134 
	C659.300476,616.136841 657.877014,614.716309 656.487671,613.280334 
	C655.688171,612.453918 654.782471,611.730164 653.711060,610.768616 
	C650.772034,612.689758 648.254456,615.098511 645.016357,616.455139 
	C642.829712,617.371277 642.379150,619.708740 642.140381,621.937500 
	C641.649536,626.519409 642.757019,630.825012 644.068237,635.169678 
	C646.518921,643.289368 649.245483,651.406067 647.971008,660.119629 
	C645.473816,677.193115 632.981873,688.313416 613.773682,691.363403 
	C597.301697,693.979004 580.651672,694.460632 564.108826,696.197205 
	C541.069031,698.615845 524.045593,709.409058 513.594849,730.313416 
	C508.732819,740.038818 504.795044,750.159485 501.788818,760.528809 
	C491.270905,796.807922 476.393951,831.328979 460.364258,865.406494 
	C459.108582,868.075928 458.324799,871.479858 454.604523,872.132507 
	C452.737183,870.448059 453.731598,868.930847 454.459656,867.488220 
	C473.566864,829.629822 488.893646,790.282471 501.063812,749.675598 
	C503.554901,741.363831 507.161682,733.477722 511.253937,725.817688 
	C520.854614,707.846680 535.744141,697.242432 555.756409,693.718628 
	C557.707825,693.375061 559.648560,692.970642 562.647034,692.390869 
	C541.581116,691.924683 521.625427,690.571228 501.668945,689.263367 
	C485.568420,688.208191 469.511414,686.685425 453.608246,683.854187 
	C432.140045,680.032288 414.684875,668.592102 398.976990,654.285522 
	C387.156494,643.519592 375.904694,632.121826 366.275055,619.259888 
	C363.627716,615.723816 363.607849,615.738708 366.538788,612.739319 
	C367.031677,613.093567 367.703918,613.358582 368.043457,613.852356 
	C378.233948,628.673035 391.405457,640.715942 404.386078,652.938965 
	C423.273529,670.724121 445.646851,680.312500 471.496094,682.780334 
	C513.639526,686.803833 555.838196,689.041199 598.172974,688.682129 
	C604.021973,688.632507 609.801941,688.005249 615.511536,686.781311 
	C639.129089,681.718811 649.219482,664.290710 641.935974,641.239685 
	C640.832520,637.747314 639.891541,634.203857 638.817993,630.701599 
	C637.404907,626.091614 637.616455,621.510071 639.366516,616.409424 
	C632.561768,614.204651 625.869202,612.288818 620.212952,607.987244 
	C610.922363,600.921753 603.426636,592.439331 597.682190,582.239929 
	C592.612976,573.239502 592.424561,564.153503 596.117981,554.847778 
	C603.513000,536.215576 614.651062,519.876953 627.531372,504.673920 
	C629.304810,502.580658 631.773682,501.076599 634.343201,498.949951 
	C626.863281,492.363922 623.459351,483.966278 623.702209,473.150330 
	C617.645874,476.831635 611.466980,477.660919 606.780823,482.596252 
	C602.651001,486.945618 596.674255,487.121155 590.868347,485.097290 
	C583.623596,482.571838 579.773743,477.256592 578.837952,469.945190 
	C578.372314,466.307312 576.832703,462.170502 580.204041,458.835999 
	C583.078674,460.208191 582.085510,462.483795 582.353271,464.313843 
	C583.407654,471.520477 584.341064,478.695251 593.024475,481.166138 
	C600.468506,483.284393 604.779358,480.806305 606.124451,473.288910 
	C607.445679,465.905029 617.253967,456.578735 624.760986,455.568237 
	C629.305359,454.956512 630.899719,456.697113 630.034546,461.309784 
	C629.740906,462.874878 628.713745,464.349365 629.364929,466.065948 
	C638.080994,463.300842 645.547058,445.692200 642.249573,435.623108 
	C640.701782,430.896851 636.629822,428.432678 632.341553,426.274536 
	C614.936890,417.515564 597.116333,409.545471 580.648254,399.001617 
	C569.954041,392.154510 560.502014,384.302643 555.740173,371.921570 
	C552.963989,364.703461 553.465393,357.163666 552.833008,349.756104 
	C552.109924,341.286652 550.358643,333.306396 545.291992,326.317963 
	C526.240662,300.040649 505.347809,275.469757 479.050140,256.054810 
	C469.916260,249.311508 459.395844,244.810318 449.723785,238.918350 
	C448.044464,237.895355 446.770416,237.901718 445.266632,239.215942 
	C431.956299,250.848450 415.690643,257.764069 400.856934,266.968628 
	C381.188599,279.173187 368.384338,296.385742 363.839905,319.183563 
	C362.212372,327.348511 362.660309,335.893097 363.604584,344.101379 
	C365.408722,359.784302 359.930878,373.247864 352.547119,386.304810 
	C347.548157,395.144714 342.319611,403.828827 337.807434,412.963287 
	C330.639435,427.474243 331.754272,442.315002 334.794891,457.367065 
	C336.110291,463.878754 338.231720,470.227142 338.244629,476.980469 
	C338.277954,494.418945 325.506927,507.556519 308.030640,508.358765 
	C297.820221,508.827515 288.879028,504.605469 279.614471,501.477570 
	C276.480377,500.419403 273.386597,499.241913 270.126282,498.437195 
	C274.079041,500.599823 278.352386,502.166565 281.578949,505.435181 
	C282.639557,506.509583 284.952240,507.271301 283.150757,509.304688 
	C281.674988,510.970398 280.487610,509.239105 279.318359,508.474487 
	C269.445740,502.018738 258.426941,498.624298 246.824936,498.489655 
	C223.130630,498.214569 207.116165,520.580261 214.171494,543.323914 
	C217.237137,553.206238 222.632004,561.791748 229.297867,569.560852 
	C245.545212,588.497192 265.582489,601.472046 289.516174,608.952454 
	C299.643250,612.117615 309.613159,614.835999 320.221008,614.642822 
	C325.436127,614.547913 330.455261,613.533081 334.796906,610.260620 
	C342.362274,604.558533 343.850555,598.105347 339.387543,589.746582 
	C338.627350,588.322937 337.019958,586.710815 339.015808,585.423828 
	C341.043671,584.116150 341.901978,586.376099 342.799591,587.590088 
	C349.074005,596.076111 346.447937,607.914978 337.325714,613.656555 
	C325.759033,620.936584 313.656708,620.069214 301.190460,616.747375 
	C284.380463,612.268127 268.278290,606.158569 253.314972,596.602173 
	C252.567657,599.816895 254.339874,601.959900 255.500183,604.198364 
	C263.610474,619.844421 275.272552,633.004089 285.556671,647.137756 
	C303.059509,671.192078 316.731750,697.261902 323.513306,726.354919 
	C327.325409,742.708862 328.730347,759.520569 327.335999,776.408447 
	C327.123016,778.988098 327.114227,778.987366 325.003479,781.519104 
	C322.721954,779.945251 323.656250,777.553955 323.711853,775.596863 
	C324.190887,758.729919 323.409882,741.993042 319.239624,725.545959 
	C312.899292,700.540466 301.621796,677.752625 287.254730,656.540039 
	C278.482239,643.587708 268.528412,631.440796 259.309540,618.783325 
	C254.483978,612.157837 250.472244,604.996460 248.907608,596.818298 
	C248.051483,592.343384 244.526154,590.299805 241.557953,587.733704 
	C230.757675,578.396545 221.166168,567.940369 214.443130,555.335876 
	C208.551865,544.290833 206.610168,532.280579 210.361832,520.020325 
	C215.815781,502.196899 234.665695,491.638824 254.504700,494.990234 
	C257.785095,495.544373 260.902893,496.378937 264.070496,494.166962 
	C265.760162,492.987030 267.946930,494.060822 269.884308,494.547729 
	C279.746124,497.026001 288.864655,501.775085 298.859924,503.883484 
	C320.263855,508.398376 336.512634,493.319305 333.239044,471.755280 
	C332.193054,464.864929 330.809784,458.024841 329.535187,451.170258 
	C326.081604,432.597260 329.959839,415.533875 339.765656,399.546539 
	C344.465973,391.883118 348.667236,383.915100 353.170532,376.128998 
	C360.053040,364.229279 360.261078,351.362274 358.535522,338.298004 
	C357.050537,327.054962 359.556976,316.457245 363.164978,306.019470 
	C370.531555,284.708160 385.338715,269.953064 404.865112,259.579498 
	C416.062469,253.630814 426.954773,247.202301 437.479218,240.146866 
	C440.345337,238.225449 443.393219,236.541412 442.012238,231.880188 
	C441.285858,229.428421 443.718536,228.709671 445.943268,228.658066 
	C452.802979,228.498962 459.108826,230.211975 464.885559,233.966446 
	C466.515045,235.025528 467.893036,236.623581 470.705811,236.898590 
	C470.494873,229.203339 467.037415,223.179306 462.157623,217.955078 
	C450.380737,205.347000 435.612396,197.460007 419.538361,191.838455 
	C399.505432,184.832382 378.774445,182.096512 357.651611,182.941971 
	C313.432800,184.711838 271.012115,195.208878 230.236221,211.785751 
	C183.791809,230.667084 143.397568,258.497894 112.499992,298.525818 
	C99.426514,315.462585 90.081566,334.673462 83.781654,355.294220 
	C76.075623,380.517517 72.162239,406.261688 73.537621,432.579437 
	C74.744545,455.673553 78.162163,478.508636 82.643440,501.252411 
	C87.660995,526.717896 94.322395,551.785828 99.662979,577.151428 
	C106.966217,611.838806 113.176620,646.753784 112.188065,682.428528 
	C111.507515,706.987671 106.965279,730.999878 100.512421,754.664612 
	C100.132607,756.057373 100.025269,757.727295 97.850777,757.836121 
	C95.977692,756.460266 96.782120,754.596619 97.192535,752.925476 
	C101.719299,734.494385 105.416718,715.835144 107.153473,696.997681 
	C108.692497,680.304993 108.705627,663.395630 106.673813,646.624817 
	C103.513512,620.539246 100.064636,594.471497 93.610123,568.972839 
	C86.874260,542.362732 81.103928,515.565247 76.139290,488.584290 
	C71.709518,464.510162 67.868980,440.298859 69.079720,415.748993 
	C71.302444,370.679230 83.319000,328.598541 111.643578,292.715179 
	C130.327011,269.045837 153.040268,249.496002 178.832764,233.537338 
	C214.654068,211.373474 253.442001,196.879929 294.373444,187.829849 
	C308.326355,184.744812 322.374115,181.436203 336.552704,180.150467 
	C374.960693,176.667618 412.542755,179.497009 446.657806,200.096909 
	C460.373169,208.378754 471.789856,218.846970 475.658020,235.356262 
	C475.958191,236.637405 476.220398,238.006195 476.091736,239.293427 
	C475.776245,242.449829 474.214722,243.946289 471.049500,242.197281 
	C468.138367,240.588684 465.273346,238.887817 462.459595,237.114029 
	C458.203339,234.430923 453.751526,232.461243 448.027863,232.456833 
	C449.668427,235.160660 451.929321,236.309052 454.128937,237.243683 
	C483.817078,249.858414 506.062317,271.706635 526.819885,295.473083 
	C533.960754,303.648987 540.079529,312.591583 546.803650,321.069031 
	C553.740479,329.814606 557.069519,339.558716 557.173523,350.604340 
	C557.226685,356.255371 557.247925,361.918152 558.776184,367.454987 
	C561.631165,377.798798 568.195557,385.161102 576.860657,391.143036 
	C593.944031,402.936462 612.378113,412.318604 631.201782,420.776886 
	C649.673157,429.076935 650.578247,442.567566 643.288757,457.038757 
	C640.511963,462.551270 636.716675,467.120087 631.465759,470.260651 
	C628.755249,471.881836 628.019470,473.923676 628.038879,476.828430 
	C628.114990,488.195526 633.362000,495.409424 644.406006,498.840515 
	C648.428040,500.090118 650.130676,503.152771 651.207703,506.802460 
	C653.664001,515.126892 651.591980,522.902588 648.422607,530.604065 
	C644.499817,540.136230 640.211670,549.549988 639.058960,559.997986 
	C638.723877,563.035034 639.378357,564.249390 642.589050,565.118408 
	C675.008423,573.893127 701.036743,592.487732 723.057983,617.437378 
	C746.040527,643.476196 760.032837,673.754272 766.712524,707.588013 
	C769.977722,724.127014 770.725647,740.935303 771.310120,757.740845 
	C772.032410,778.509155 774.578430,798.994629 783.462646,818.028442 
	C791.240479,834.691956 802.667725,847.928406 820.861938,854.071228 
	C826.422791,855.948730 832.018005,856.129883 837.623230,855.350647 
	C842.444031,854.680481 847.256531,854.712769 852.074463,854.486450 
	C861.492310,854.044067 869.534790,856.697998 876.558594,863.502258 
	C883.070496,869.810669 891.908020,871.191101 900.659363,871.711731 
	C908.301392,872.166382 915.997986,872.021912 923.525513,873.606934 
	C927.633728,874.471863 931.921814,875.606140 932.666321,880.748779 
	C933.355957,885.512329 930.093201,887.981934 926.579590,890.160034 
	C924.605652,891.383728 922.617981,892.585510 920.199585,894.064392 
	C924.449341,896.286682 928.896973,896.434326 933.156799,896.578918 
	C949.304626,897.127014 965.464050,897.322388 981.617188,897.727417 
	C995.767456,898.082153 1009.915039,898.541138 1024.531982,898.977051 
	C1025.000000,900.714355 1025.000000,902.428711 1025.000000,904.571533 
M628.244751,509.729858 
	C616.837280,524.779114 605.716125,539.996460 599.607300,558.168579 
	C605.984192,548.962769 613.248230,540.561890 621.398560,532.935364 
	C625.171265,529.405029 629.147095,526.033203 634.068176,524.235229 
	C636.536804,523.333374 639.473022,522.768433 641.698914,524.651184 
	C644.102173,526.684021 642.491028,529.275452 641.769409,531.595947 
	C639.300903,539.533813 634.695679,546.662659 632.919556,554.861755 
	C632.380798,557.348877 631.359497,559.900208 633.121460,562.416199 
	C635.632751,561.550842 635.510254,559.525940 635.591309,557.813232 
	C635.711182,555.280640 636.492188,552.925537 637.021057,550.493713 
	C639.016479,541.318481 643.532837,533.074097 646.567932,524.284912 
	C648.402039,518.973816 649.151611,513.612305 647.563782,508.140564 
	C646.507812,504.501587 644.852051,502.165802 640.099854,502.822937 
	C635.233337,503.495850 631.729492,505.683411 628.244751,509.729858 
M626.905457,607.661255 
	C632.463623,610.494934 638.204285,612.507202 644.602356,611.835571 
	C646.629456,611.622803 648.037903,610.651245 648.856445,608.851807 
	C649.714844,606.964783 648.076294,606.275635 647.062866,605.230591 
	C634.403748,592.177185 616.370667,588.900757 600.936951,579.043396 
	C605.461487,589.573486 615.238586,600.263184 626.905457,607.661255 
M632.573059,544.269958 
	C632.827881,542.766663 634.443054,541.319824 632.837158,539.757812 
	C629.647766,539.943237 626.534729,540.153564 623.418640,540.293457 
	C621.784851,540.366821 619.998230,539.872192 618.696167,541.235413 
	C613.352722,546.829773 608.356567,552.703369 603.470520,559.908813 
	C611.491699,560.532227 618.533569,561.130249 625.584167,561.596558 
	C627.702698,561.736694 628.359680,560.164246 628.566162,558.348206 
	C629.095215,553.694824 630.590210,549.309998 632.573059,544.269958 
M615.189941,465.668701 
	C612.992126,468.225952 610.719604,470.743958 610.109863,474.496124 
	C618.909485,472.762268 625.807983,467.331970 625.041931,460.613647 
	C621.047119,460.345703 618.461792,462.955170 615.189941,465.668701 
M632.571777,535.249512 
	C633.964172,534.619995 635.986877,534.774109 636.054932,532.484924 
	C631.848450,529.503723 628.368835,530.715027 625.157471,536.339783 
	C627.572815,537.166321 629.663086,535.766174 632.571777,535.249512 
z"/>
<path fill="#000000" opacity="1.000000" stroke="none" 
	d="
M275.017395,594.238647 
	C248.942398,586.146545 233.180756,567.928894 223.381683,543.859375 
	C220.151627,535.925354 221.500290,528.106262 225.207687,520.241150 
	C229.311111,511.535858 250.438980,506.212616 259.878265,510.101501 
	C274.316895,516.050049 283.397736,525.973755 285.251617,541.843323 
	C285.398712,543.102295 284.968353,544.564758 286.292236,545.516724 
	C286.593903,545.345276 286.974030,545.255859 287.136719,545.017761 
	C289.633759,541.365723 292.198669,537.442078 297.443176,538.936951 
	C302.184235,540.288391 302.353638,545.085571 302.944794,548.793152 
	C304.056366,555.764587 307.633972,559.916321 314.388885,561.609253 
	C316.477875,562.132812 318.510773,562.917786 320.523041,563.701965 
	C324.309082,565.177246 326.329895,567.835022 326.405670,572.068054 
	C326.480316,576.239075 324.624969,579.108826 321.087524,580.930664 
	C317.877991,582.583618 314.239624,583.469910 310.949768,581.909424 
	C301.817047,577.577148 293.154755,579.140686 284.517975,583.165894 
	C274.553955,587.809692 266.653473,582.823853 259.378296,577.126709 
	C252.316422,571.596558 250.625107,563.599609 252.019836,555.012024 
	C252.803635,550.185913 255.500977,546.236084 259.654968,543.745361 
	C267.252594,539.189758 269.239594,531.483948 271.538666,523.875427 
	C272.084015,522.070740 270.773834,521.139404 269.687714,520.114624 
	C260.742676,511.674927 243.072342,510.262177 233.492294,517.766113 
	C226.127441,523.534912 224.471252,531.919678 226.858093,540.400452 
	C232.617020,560.862732 254.087921,588.205566 282.819458,591.650146 
	C284.552734,591.857849 287.121521,591.468506 286.736572,594.174072 
	C286.395660,596.570129 283.998627,596.169556 282.218018,595.867859 
	C279.929260,595.480042 277.680450,594.856567 275.017395,594.238647 
M256.224731,557.925964 
	C255.912918,572.774536 266.844391,583.038940 280.526398,579.495789 
	C291.623718,576.621948 302.152283,573.539612 313.510193,578.494324 
	C317.144623,580.079712 320.924805,577.124878 322.183014,573.461914 
	C323.488342,569.661682 319.965027,567.994934 317.138916,566.586609 
	C315.679718,565.859436 313.995148,565.545654 312.383209,565.170593 
	C305.095093,563.474609 300.805389,559.014526 299.652313,551.576538 
	C299.372284,549.770386 299.017975,547.973267 298.627411,546.187378 
	C298.212219,544.288879 297.364807,542.701233 295.164337,542.480591 
	C293.009125,542.264526 292.397766,543.987183 291.665161,545.461182 
	C290.251465,548.305359 289.019318,551.815979 285.063965,551.080017 
	C281.047821,550.332642 282.160980,546.478699 281.723328,543.680115 
	C281.672119,543.352661 281.722595,543.006348 281.651459,542.685364 
	C280.362000,536.865295 279.458862,530.873413 274.217590,525.157410 
	C274.765839,535.156067 270.214508,540.982605 263.647400,545.673889 
	C259.700562,548.493347 256.974518,552.135376 256.224731,557.925964 
z"/>
<path fill="#000000" opacity="1.000000" stroke="none" 
	d="
M505.800537,342.621521 
	C513.345276,340.535980 520.614014,340.214752 527.962769,340.647919 
	C534.002747,341.003967 537.829590,344.682800 538.258118,350.712158 
	C538.647034,356.183319 535.082825,360.487549 529.155518,361.243256 
	C519.273376,362.503174 509.381134,363.826447 499.494202,364.874756 
	C481.776550,366.753357 467.315582,374.514984 454.344177,386.204224 
	C449.740906,390.352478 445.797821,395.030640 441.497467,399.411957 
	C440.535370,400.392151 439.410217,401.256165 437.997131,400.266663 
	C436.568573,399.266296 436.987091,397.977020 437.700073,396.740723 
	C445.848389,382.611176 453.889374,368.442413 466.796936,357.821930 
	C476.526581,349.816345 488.158722,346.624329 500.021820,343.848022 
	C501.801636,343.431519 503.597260,343.082825 505.800537,342.621521 
M505.942383,346.437897 
	C497.075989,348.114319 488.620544,351.105682 480.240967,354.373016 
	C470.378479,358.218536 457.782166,370.859375 452.068390,382.243591 
	C467.007507,369.131805 483.738892,361.552277 503.328064,360.338684 
	C511.762177,359.816162 520.166992,358.379761 528.504272,356.902679 
	C533.485474,356.020142 535.020996,352.199310 532.766052,347.968323 
	C531.231262,345.088654 528.622375,344.119904 525.636292,344.374756 
	C519.347229,344.911499 513.077209,345.671051 505.942383,346.437897 
z"/>
<path fill="#000000" opacity="1.000000" stroke="none" 
	d="
M489.040466,417.955475 
	C500.236908,418.782928 510.314209,415.822906 520.284363,412.567261 
	C526.715210,410.467316 527.796875,408.408386 526.701172,401.678680 
	C525.521606,394.433411 522.064148,388.210907 517.571777,382.507050 
	C516.336853,380.939087 515.055481,379.391632 513.991150,377.710785 
	C513.188293,376.442871 513.531006,375.103333 514.672058,374.115479 
	C516.013977,372.953644 517.322144,373.521057 518.081665,374.735107 
	C523.793579,383.865387 530.645752,392.520081 531.326477,403.905975 
	C531.737000,410.772583 534.283447,413.018402 541.324585,412.174988 
	C542.309509,412.057037 543.257874,411.619415 544.214294,412.142853 
	C544.476257,412.286163 544.626953,412.632660 544.825439,412.888550 
	C542.963745,416.437225 542.876404,416.474579 537.502869,415.825989 
	C539.088928,417.495087 541.867737,416.814209 542.845215,419.363770 
	C539.938293,421.919708 536.934631,419.766602 533.781921,419.553284 
	C534.138977,421.016418 536.403687,420.271606 536.348022,422.153961 
	C530.215027,425.523376 526.835205,418.949249 521.490662,417.463715 
	C522.810852,422.989288 528.642517,422.381805 531.452881,426.083099 
	C525.298584,427.104340 520.992920,425.335541 518.028198,419.579773 
	C517.550659,422.564331 519.893677,423.805420 519.710876,425.990021 
	C514.121948,429.968323 511.115906,426.210358 508.262024,421.170929 
	C507.067749,424.318848 510.099762,425.606171 509.447083,428.015839 
	C505.047394,428.616425 504.772736,424.299652 502.354797,421.873260 
	C501.982910,424.013641 504.079224,425.646545 502.730743,427.855774 
	C500.681427,428.283295 498.827087,426.949890 497.252014,425.733582 
	C492.811737,422.304718 487.971558,421.779022 482.678101,422.837982 
	C481.032867,423.167114 478.583405,424.086761 478.230042,421.359650 
	C477.851166,418.435974 480.200348,417.903748 482.558838,417.891693 
	C484.557037,417.881470 486.555481,417.931061 489.040466,417.955475 
z"/>
</svg>